<svg width="53" height="73" viewBox="0 0 53 73" fill="none" xmlns="http://www.w3.org/2000/svg">
<g id="Group">
<path id="Vector" d="M-16.1355 32.3902C-18.2698 50.2788 -5.49835 66.5107 12.3903 68.645C30.2789 70.7793 46.5107 58.0078 48.645 40.1192C48.9964 37.174 48.9435 34.2738 48.5307 31.4734L-13.9904 24.014C-15.0504 26.6386 -15.7841 29.4451 -16.1355 32.3902ZM37.0938 34.0212C38.263 34.1607 39.0976 35.2215 38.9581 36.3907C38.8186 37.5598 37.7578 38.3945 36.5887 38.255C35.4195 38.1155 34.5848 37.0547 34.7243 35.8855C34.8638 34.7164 35.9246 33.8817 37.0938 34.0212ZM23.8419 32.4401C25.0111 32.5796 25.8457 33.6404 25.7062 34.8096C25.5667 35.9788 24.5059 36.8134 23.3367 36.6739C22.1676 36.5344 21.3329 35.4736 21.4724 34.3045C21.6119 33.1353 22.6727 32.3006 23.8419 32.4401Z" fill="white"/>
<path id="Vector_2" d="M20.1192 3.86447C10.8216 2.75518 1.97155 5.67333 -4.68435 11.2432L42.4904 16.8716C37.3318 9.89216 29.4168 4.97377 20.1192 3.86447Z" fill="white"/>
<path id="Vector_3" d="M23.3367 36.6734C24.5059 36.8129 25.5667 35.9782 25.7062 34.8091C25.8457 33.6399 25.011 32.5791 23.8419 32.4396C22.6727 32.3001 21.6119 33.1348 21.4724 34.3039C21.3329 35.473 22.1676 36.5339 23.3367 36.6734Z" fill="#082D4C"/>
<path id="Vector_4" d="M36.5888 38.2545C37.7579 38.394 38.8188 37.5593 38.9583 36.3902C39.0978 35.221 38.2631 34.1602 37.0939 34.0207C35.9248 33.8812 34.8639 34.7159 34.7245 35.885C34.585 37.0542 35.4197 38.115 36.5888 38.2545Z" fill="#082D4C"/>
<path id="Vector_5" d="M46.6189 24.3196C45.5696 21.6571 44.1772 19.1542 42.4905 16.8716L-4.68427 11.2432C-6.86119 13.0648 -8.80334 15.1698 -10.4491 17.5108L46.6189 24.3196Z" fill="#0BD8A7"/>
<path id="Vector_6" d="M-10.4497 17.5108C-11.8598 19.5158 -13.0529 21.6937 -13.9904 24.0146L48.5306 31.474C48.1655 28.9976 47.5177 26.6002 46.6194 24.3197L-10.4497 17.5108Z" fill="#05668D"/>
</g>
</svg>
