<svg width="85" height="129" viewBox="0 0 85 129" fill="none" xmlns="http://www.w3.org/2000/svg">
<g id="Group">
<path id="Vector" d="M115.725 50.8246C123.212 78.7686 106.629 107.492 78.6848 114.979C50.7409 122.467 22.0178 105.884 14.5302 77.9395C13.2974 73.3388 12.7175 68.717 12.7325 64.1715L110.397 38.0023C112.683 41.9313 114.492 46.2239 115.725 50.8246ZM31.4939 65.6028C29.6675 66.0922 28.5838 67.9693 29.0731 69.7957C29.5625 71.6221 31.4397 72.7058 33.266 72.2165C35.0924 71.7271 36.1762 69.8499 35.6868 68.0236C35.1974 66.1972 33.3203 65.1134 31.4939 65.6028ZM52.1949 60.056C50.3685 60.5453 49.2847 62.4225 49.7741 64.2489C50.2635 66.0753 52.1406 67.159 53.967 66.6696C55.7934 66.1803 56.8772 64.3031 56.3878 62.4767C55.8984 60.6504 54.0213 59.5666 52.1949 60.056Z" fill="white"/>
<path id="Vector_2" d="M51.57 13.7849C66.0938 9.89325 80.8283 12.5054 92.6825 19.8345L18.9903 39.5803C25.5917 27.306 37.0461 17.6766 51.57 13.7849Z" fill="white"/>
<path id="Vector_3" d="M53.9668 66.6688C52.1405 67.1582 50.2633 66.0744 49.7739 64.2481C49.2846 62.4218 50.3684 60.5445 52.1947 60.0552C54.021 59.5658 55.8983 60.6496 56.3876 62.4759C56.877 64.3023 55.7932 66.1795 53.9668 66.6688Z" fill="#082D4C"/>
<path id="Vector_4" d="M33.2658 72.2157C31.4394 72.705 29.5622 71.6212 29.0729 69.7949C28.5835 67.9686 29.6673 66.0914 31.4936 65.602C33.3199 65.1126 35.1972 66.1965 35.6865 68.0228C36.1759 69.8491 35.0921 71.7263 33.2658 72.2157Z" fill="#082D4C"/>
<path id="Vector_5" d="M14.1335 52.3634C15.1918 47.8913 16.8318 43.5944 18.9902 39.5803L92.6824 19.8345C96.5595 22.2314 100.128 25.1326 103.28 28.4767L14.1335 52.3634Z" fill="#05668D"/>
<path id="Vector_6" d="M103.281 28.4764C105.981 31.3405 108.376 34.5289 110.398 38.0031L12.7328 64.1724C12.7463 60.1528 13.227 56.1939 14.1327 52.3636L103.281 28.4764Z" fill="#0BD8A7"/>
</g>
</svg>
