<svg width="148" height="47" viewBox="0 0 148 47" fill="none" xmlns="http://www.w3.org/2000/svg">
<g filter="url(#filter0_d)">
<path d="M51.2828 11.4517C49.9818 10.8276 48.2076 10.5143 45.9578 10.5143C42.3867 10.5143 39.4336 11.4164 37.0982 13.2196C34.7628 15.0227 33.3057 17.567 32.7256 20.8523L29.6755 38.1513H35.782L38.5213 22.619C39.3014 18.1923 41.7815 15.9777 45.959 15.9777C47.1015 15.9777 48.0968 16.1036 48.9462 16.3527C49.7943 16.6031 50.4964 16.8711 51.0538 17.1568C51.2942 17.0146 51.6326 16.6572 52.073 16.0859C52.5122 15.5147 52.7865 14.9258 52.8934 14.3181C53.1199 13.0321 52.5826 12.077 51.2828 11.4517Z" fill="white"/>
<path d="M60.6256 10.4778C59.59 10.4778 58.747 10.7017 58.0977 11.1472C57.4472 11.5939 57.0345 12.3174 56.8583 13.3164L52.2253 38.1512H58.3317L63.3624 11.0666C63.195 10.9962 62.8603 10.8791 62.352 10.7181C61.8436 10.5583 61.2686 10.4778 60.6256 10.4778Z" fill="white"/>
<path d="M64.5791 1.0708C63.9902 0.357355 63.1787 0 62.1431 0C61.1075 0 60.1688 0.357355 59.3296 1.0708C58.489 1.78551 57.9782 2.66002 57.7957 3.69559C57.6133 4.73116 57.8158 5.60567 58.4035 6.32038C58.9911 7.03508 59.8027 7.39117 60.8395 7.39117C61.8751 7.39117 62.8125 7.03508 63.653 6.32038C64.4923 5.60693 65.0032 4.73241 65.1869 3.69559C65.3693 2.66002 65.1667 1.78551 64.5791 1.0708Z" fill="#0BD8A7"/>
<path d="M109.455 13.0849C108.57 12.228 107.451 11.585 106.099 11.156C104.746 10.7281 103.247 10.513 101.607 10.513C99.4286 10.513 97.4103 10.9244 95.5518 11.7448C93.6933 12.5665 92.1041 13.7807 90.7854 15.3876C90.033 13.7807 88.854 12.5678 87.2496 11.7448C85.6441 10.9244 83.7353 10.513 81.5219 10.513C79.8434 10.513 78.2504 10.7369 76.7442 11.1824C75.2368 11.6291 73.8804 12.2796 72.6774 13.1378C71.472 13.9947 70.454 15.0655 69.6211 16.3502C68.7868 17.6361 68.2193 19.136 67.9173 20.8498L64.8672 38.1487H70.9737L73.6564 22.9385C74.0905 20.4748 74.9738 18.7069 76.3051 17.6361C77.6363 16.5653 79.2306 16.0293 81.0866 16.0293C82.9073 16.0293 84.3304 16.6194 85.3547 17.7972C86.3789 18.9749 86.6582 20.8863 86.1927 23.5287L83.6145 38.15H89.7209L92.2992 23.5287C92.7647 20.8863 93.7172 18.9762 95.1567 17.7972C96.5975 16.6194 98.2269 16.0293 100.048 16.0293C101.94 16.0293 103.347 16.5565 104.268 17.6097C105.188 18.6629 105.432 20.422 104.998 22.8857L102.306 38.15H108.413L111.473 20.7969C111.775 19.0832 111.736 17.5833 111.356 16.2986C110.971 15.0139 110.339 13.9418 109.455 13.0849Z" fill="white"/>
<path d="M142.74 15.9299C142.428 14.8591 141.853 13.9217 141.014 13.1176C140.173 12.3149 139.081 11.6719 137.738 11.1887C136.395 10.7068 134.795 10.4652 132.938 10.4652C130.83 10.4652 128.832 10.8137 126.942 11.5096C125.052 12.2054 123.344 13.1881 121.817 14.4552C120.29 15.7236 119.005 17.2398 117.962 19.0077C116.918 20.7756 116.208 22.7297 115.83 24.8726C115.434 27.1224 115.356 29.1432 115.902 30.8444C119.973 43.5254 137.265 36.8426 138.838 35.6636L137.42 31.8347C137.187 31.9416 136.829 32.1027 136.344 32.3166C135.86 32.5305 135.286 32.7457 134.624 32.9596C133.961 33.1735 133.224 33.3534 132.415 33.4956C131.603 33.639 130.734 33.7108 129.806 33.7108C127.057 33.7108 125.04 33.1483 123.758 32.0234C122.474 30.8985 121.85 29.425 121.885 27.6043C122.592 27.6408 123.258 27.6672 123.88 27.6848C124.501 27.7037 125.169 27.7113 125.884 27.7113C128.954 27.7113 131.525 27.5062 133.599 27.096C135.67 26.6857 137.36 26.1145 138.667 25.3822C139.974 24.6511 140.95 23.7753 141.594 22.7574C142.237 21.7394 142.67 20.607 142.89 19.3562C143.1 18.1458 143.051 17.002 142.74 15.9299ZM136.96 19.2505C136.865 19.7866 136.666 20.305 136.364 20.8045C136.061 21.3053 135.536 21.7508 134.789 22.1433C134.04 22.5372 133.037 22.858 131.78 23.1072C130.522 23.3576 128.912 23.4821 126.947 23.4821C126.197 23.4821 125.447 23.4821 124.698 23.4821C123.948 23.4821 123.165 23.4645 122.35 23.4293C122.567 22.3937 122.952 21.377 123.505 20.3767C124.056 19.3776 124.738 18.4943 125.552 17.7255C126.365 16.9579 127.313 16.3426 128.394 15.8783C129.475 15.414 130.677 15.1825 131.998 15.1825C133.605 15.1825 134.892 15.5222 135.862 16.2004C136.834 16.8774 137.199 17.8954 136.96 19.2505Z" fill="white"/>
<path d="M34.6785 6.06746C36.7861 6.06746 38.2029 5.1036 38.9315 3.17591C39.1882 2.49769 39.314 1.88239 39.309 1.32749C39.3039 0.77384 39.2813 0.408939 39.2423 0.229004H8.65962C6.55324 0.229004 5.13516 1.19285 4.40661 3.1218C4.14992 3.80002 4.01654 4.41658 4.0027 4.96897C3.99011 5.52261 4.02157 5.88878 4.09707 6.0662H17.5935H18.0439L12.2722 38.15H18.6454L24.4171 6.0662H34.6785V6.06746Z" fill="white"/>
</g>
<defs>
<filter id="filter0_d" x="0" y="0" width="147.017" height="46.4741" filterUnits="userSpaceOnUse" color-interpolation-filters="sRGB">
<feFlood flood-opacity="0" result="BackgroundImageFix"/>
<feColorMatrix in="SourceAlpha" type="matrix" values="0 0 0 0 0 0 0 0 0 0 0 0 0 0 0 0 0 0 127 0"/>
<feOffset dy="4"/>
<feGaussianBlur stdDeviation="2"/>
<feColorMatrix type="matrix" values="0 0 0 0 0 0 0 0 0 0 0 0 0 0 0 0 0 0 0.25 0"/>
<feBlend mode="normal" in2="BackgroundImageFix" result="effect1_dropShadow"/>
<feBlend mode="normal" in="SourceGraphic" in2="effect1_dropShadow" result="shape"/>
</filter>
</defs>
</svg>
