<svg width="81" height="23" viewBox="0 0 81 23" fill="none" xmlns="http://www.w3.org/2000/svg">
<path d="M27.5497 7.25503C26.7917 6.89139 25.7579 6.70883 24.447 6.70883C22.3663 6.70883 20.6456 7.2345 19.2849 8.28511C17.9242 9.33572 17.0752 10.8182 16.7372 12.7324L14.96 22.8118H18.518L20.1141 13.7618C20.5687 11.1825 22.0137 9.89219 24.4478 9.89219C25.1135 9.89219 25.6934 9.9655 26.1883 10.1107C26.6824 10.2566 27.0915 10.4127 27.4163 10.5792C27.5563 10.4963 27.7536 10.2881 28.0102 9.95524C28.266 9.62239 28.4259 9.27927 28.4882 8.92516C28.6201 8.17588 28.3071 7.61941 27.5497 7.25503Z" fill="white"/>
<path d="M32.9935 6.68759C32.3902 6.68759 31.8989 6.81809 31.5206 7.07763C31.1416 7.3379 30.9011 7.75946 30.7985 8.34159L28.099 22.8118H31.657L34.5881 7.03071C34.4906 6.98965 34.2956 6.92147 33.9994 6.82762C33.7032 6.73451 33.3682 6.68759 32.9935 6.68759Z" fill="white"/>
<path d="M35.2969 1.20656C34.9538 0.790858 34.4809 0.582642 33.8775 0.582642C33.2741 0.582642 32.7272 0.790858 32.2382 1.20656C31.7485 1.62299 31.4508 2.13253 31.3445 2.73591C31.2382 3.3393 31.3562 3.84885 31.6986 4.26528C32.041 4.68171 32.5139 4.88919 33.118 4.88919C33.7214 4.88919 34.2676 4.68171 34.7573 4.26528C35.2463 3.84958 35.544 3.34003 35.651 2.73591C35.7573 2.13253 35.6393 1.62299 35.2969 1.20656Z" fill="#0BD8A7"/>
<path d="M61.4443 8.20673C60.9289 7.70745 60.2772 7.33281 59.489 7.08281C58.7009 6.83353 57.8277 6.70816 56.8717 6.70816C55.6026 6.70816 54.4266 6.9479 53.3437 7.42592C52.2609 7.90467 51.3349 8.61216 50.5665 9.5484C50.1281 8.61216 49.4411 7.9054 48.5064 7.42592C47.5709 6.9479 46.4587 6.70816 45.1691 6.70816C44.191 6.70816 43.2628 6.83866 42.3853 7.0982C41.5069 7.35847 40.7166 7.73751 40.0157 8.23752C39.3134 8.7368 38.7202 9.36071 38.2349 10.1093C37.7488 10.8585 37.4181 11.7325 37.2422 12.731L35.465 22.8104H39.023L40.5861 13.9481C40.839 12.5125 41.3537 11.4825 42.1294 10.8585C42.9051 10.2346 43.834 9.92231 44.9154 9.92231C45.9763 9.92231 46.8055 10.2662 47.4022 10.9524C47.999 11.6386 48.1618 12.7523 47.8905 14.2919L46.3883 22.8112H49.9463L51.4485 14.2919C51.7198 12.7523 52.2748 11.6394 53.1135 10.9524C53.953 10.2662 54.9024 9.92231 55.9633 9.92231C57.0659 9.92231 57.8856 10.2295 58.4223 10.8432C58.9582 11.4568 59.1004 12.4817 58.8475 13.9173L57.2793 22.8112H60.8373L62.6203 12.7002C62.7963 11.7017 62.7736 10.8278 62.5521 10.0792C62.3278 9.33065 61.9598 8.706 61.4443 8.20673Z" fill="white"/>
<path d="M80.8384 9.86438C80.6566 9.24047 80.3215 8.69427 79.8325 8.22578C79.3427 7.75803 78.7064 7.38339 77.9241 7.10186C77.1411 6.82106 76.2093 6.6803 75.1271 6.6803C73.8991 6.6803 72.7348 6.88338 71.6336 7.28881C70.5324 7.69425 69.5368 8.26684 68.6475 9.00513C67.7575 9.74415 67.0089 10.6276 66.4011 11.6577C65.7926 12.6878 65.3791 13.8263 65.1592 15.0749C64.9282 16.3858 64.8828 17.5632 65.2009 18.5545C67.5727 25.9432 77.6484 22.0494 78.5649 21.3624L77.7386 19.1314C77.603 19.1938 77.394 19.2876 77.1118 19.4122C76.8295 19.5369 76.4952 19.6623 76.1095 19.7869C75.7232 19.9115 75.2935 20.0164 74.8221 20.0992C74.3492 20.1828 73.8426 20.2246 73.3023 20.2246C71.7004 20.2246 70.5251 19.8969 69.778 19.2414C69.0302 18.586 68.6666 17.7275 68.6871 16.6666C69.0991 16.6878 69.487 16.7032 69.8491 16.7135C70.2113 16.7245 70.6006 16.7289 71.0171 16.7289C72.8059 16.7289 74.3038 16.6094 75.512 16.3704C76.7188 16.1314 77.7034 15.7985 78.4652 15.3718C79.2269 14.9459 79.7951 14.4356 80.1705 13.8425C80.5451 13.2494 80.7973 12.5895 80.9256 11.8608C81.0481 11.1555 81.0195 10.489 80.8384 9.86438ZM77.4703 11.7992C77.4153 12.1115 77.2995 12.4136 77.1235 12.7046C76.9468 12.9964 76.6411 13.256 76.2056 13.4847C75.7694 13.7142 75.185 13.9011 74.4526 14.0463C73.7195 14.1922 72.781 14.2648 71.6366 14.2648C71.1996 14.2648 70.7626 14.2648 70.3257 14.2648C69.8887 14.2648 69.4327 14.2545 68.9576 14.234C69.0845 13.6306 69.3088 13.0382 69.6307 12.4553C69.9518 11.8732 70.3491 11.3585 70.8235 10.9106C71.2971 10.4634 71.8499 10.1049 72.4797 9.83432C73.1095 9.56379 73.8096 9.42889 74.5794 9.42889C75.5157 9.42889 76.2657 9.62684 76.831 10.022C77.397 10.4164 77.6096 11.0096 77.4703 11.7992Z" fill="white"/>
<path d="M17.8751 4.1179C19.1032 4.1179 19.9287 3.5563 20.3532 2.43311C20.5028 2.03794 20.5761 1.67943 20.5731 1.35611C20.5702 1.03352 20.557 0.820905 20.5343 0.716064H2.71497C1.48767 0.716064 0.66141 1.27766 0.236914 2.40158C0.0873505 2.79675 0.00963574 3.156 0.00157104 3.47785C-0.00576049 3.80044 0.0125684 4.01379 0.0565576 4.11717H7.92037H8.18284L4.81986 22.8111H8.53328L11.8963 4.11717H17.8751V4.1179Z" fill="white"/>
</svg>
