<svg width="24" height="19" viewBox="0 0 24 19" fill="none" xmlns="http://www.w3.org/2000/svg">
<mask id="path-1-inside-1" fill="white">
<path d="M3.99663 0L0 7.47541V19H24V7.47541L20.0034 0H3.99663ZM22.4968 17.1311H1.52842V8.68082H6.71495C7.25811 10.6805 8.83453 13.5243 12.0051 13.5243C15.1756 13.5243 16.752 10.6805 17.2952 8.68394H22.4943L22.4968 17.1311ZM16.0952 6.81197L15.9739 7.56262C15.9461 7.73082 15.2716 11.6523 12.0051 11.6523C8.73853 11.6523 8.064 7.72771 8.03621 7.56262L7.91495 6.81197H2.16505L4.81263 1.86885H19.1975L21.8451 6.81197H16.0952Z"/>
</mask>
<path d="M3.99663 0V-6H0.400769L-1.29462 -2.8289L3.99663 0ZM0 7.47541L-5.29125 4.64651L-6 5.97218V7.47541H0ZM0 19H-6V25H0V19ZM24 19V25H30V19H24ZM24 7.47541H30V5.97218L29.2913 4.64651L24 7.47541ZM20.0034 0L25.2946 -2.8289L23.5992 -6H20.0034V0ZM22.4968 17.1311V23.1311H28.4986L28.4968 17.1294L22.4968 17.1311ZM1.52842 17.1311H-4.47158V23.1311H1.52842V17.1311ZM1.52842 8.68082V2.68082H-4.47158V8.68082H1.52842ZM6.71495 8.68082L12.5051 7.10807L11.3026 2.68082H6.71495V8.68082ZM17.2952 8.68394V2.68394H12.7094L11.5056 7.1089L17.2952 8.68394ZM22.4943 8.68394L28.4943 8.68214L28.4925 2.68394H22.4943V8.68394ZM16.0952 6.81197V0.811967H10.9866L10.1719 5.85511L16.0952 6.81197ZM15.9739 7.56262L21.8936 8.54068L21.8954 8.53009L21.8971 8.51948L15.9739 7.56262ZM8.03621 7.56262L2.113 8.51947L2.11616 8.53907L2.11946 8.55863L8.03621 7.56262ZM7.91495 6.81197L13.8382 5.85511L13.0235 0.811967H7.91495V6.81197ZM2.16505 6.81197L-3.12406 3.97907L-7.85504 12.812H2.16505V6.81197ZM4.81263 1.86885V-4.13115H1.21985L-0.476479 -0.964045L4.81263 1.86885ZM19.1975 1.86885L24.4866 -0.964044L22.7903 -4.13115H19.1975V1.86885ZM21.8451 6.81197V12.812H31.8651L27.1342 3.97907L21.8451 6.81197ZM-1.29462 -2.8289L-5.29125 4.64651L5.29125 10.3043L9.28788 2.8289L-1.29462 -2.8289ZM-6 7.47541V19H6V7.47541H-6ZM0 25H24V13H0V25ZM30 19V7.47541H18V19H30ZM29.2913 4.64651L25.2946 -2.8289L14.7121 2.8289L18.7087 10.3043L29.2913 4.64651ZM20.0034 -6H3.99663V6H20.0034V-6ZM22.4968 11.1311H1.52842V23.1311H22.4968V11.1311ZM7.52842 17.1311V8.68082H-4.47158V17.1311H7.52842ZM1.52842 14.6808H6.71495V2.68082H1.52842V14.6808ZM0.924745 10.2536C1.36261 11.8656 2.24914 14.0013 3.89996 15.8495C5.6622 17.8223 8.38819 19.5243 12.0051 19.5243V7.52426C12.0613 7.52426 12.1507 7.53104 12.262 7.5572C12.3731 7.5833 12.4806 7.62271 12.5776 7.67067C12.7722 7.76693 12.8556 7.86221 12.8495 7.85537C12.838 7.84247 12.7744 7.7641 12.6921 7.59945C12.6111 7.43717 12.5464 7.2599 12.5051 7.10807L0.924745 10.2536ZM12.0051 19.5243C15.6218 19.5243 18.3474 17.8225 20.1093 15.8508C21.76 14.0036 22.6467 11.8692 23.0847 10.259L11.5056 7.1089C11.4645 7.26007 11.3999 7.43696 11.3188 7.59905C11.2366 7.7635 11.173 7.84187 11.1614 7.85486C11.1552 7.8618 11.2385 7.76668 11.4329 7.67055C11.5298 7.62264 11.6372 7.58326 11.7482 7.55719C11.8595 7.53104 11.9488 7.52426 12.0051 7.52426V19.5243ZM17.2952 14.6839H22.4943V2.68394H17.2952V14.6839ZM16.4943 8.68573L16.4968 17.1329L28.4968 17.1294L28.4943 8.68214L16.4943 8.68573ZM10.1719 5.85511L10.0507 6.60576L21.8971 8.51948L22.0184 7.76883L10.1719 5.85511ZM10.0541 6.58456C10.0765 6.4493 10.081 6.46067 10.0577 6.53778C10.0297 6.63045 10.0045 6.67629 10.0129 6.66173C10.0172 6.65434 10.1575 6.4054 10.5326 6.13986C10.7306 5.99964 10.9757 5.86888 11.2587 5.77698C11.5437 5.68438 11.8026 5.6523 12.0051 5.6523V17.6523C16.5686 17.6523 19.2077 14.7279 20.3951 12.6793C21.5185 10.741 21.8389 8.87207 21.8936 8.54068L10.0541 6.58456ZM12.0051 5.6523C12.208 5.6523 12.4673 5.68448 12.7527 5.77725C13.0359 5.86931 13.2811 6.00024 13.4791 6.1405C13.8539 6.40603 13.9938 6.6547 13.9977 6.66143C14.0058 6.67544 13.9804 6.62905 13.9523 6.53587C13.9296 6.46094 13.9329 6.44752 13.953 6.56661L2.11946 8.55863C2.17152 8.86789 2.49091 10.738 3.61454 12.6773C4.80067 14.7245 7.43934 17.6523 12.0051 17.6523V5.6523ZM13.9594 6.60577L13.8382 5.85511L1.99174 7.76882L2.113 8.51947L13.9594 6.60577ZM7.91495 0.811967H2.16505V12.812H7.91495V0.811967ZM7.45416 9.64487L10.1017 4.70175L-0.476479 -0.964045L-3.12406 3.97907L7.45416 9.64487ZM4.81263 7.86885H19.1975V-4.13115H4.81263V7.86885ZM13.9084 4.70175L16.5559 9.64486L27.1342 3.97907L24.4866 -0.964044L13.9084 4.70175ZM21.8451 0.811967H16.0952V12.812H21.8451V0.811967Z" fill="#05668D" mask="url(#path-1-inside-1)"/>
</svg>
