<svg width="26" height="29" viewBox="0 0 26 29" fill="none" xmlns="http://www.w3.org/2000/svg">
<path d="M10.5926 29C12.0491 29 13.2407 27.8462 13.2407 26.4359H7.94444C7.94444 27.8462 9.13611 29 10.5926 29ZM18.537 21.3077V14.8974C18.537 10.9615 16.3788 7.66667 12.5787 6.79487V5.92308C12.5787 4.85897 11.6916 4 10.5926 4C9.49361 4 8.60648 4.85897 8.60648 5.92308V6.79487C4.81963 7.66667 2.64815 10.9487 2.64815 14.8974V21.3077L0 23.8718V25.1538H21.1852V23.8718L18.537 21.3077ZM15.8889 22.5897H5.2963V14.8974C5.2963 11.7179 7.29565 9.12821 10.5926 9.12821C13.8895 9.12821 15.8889 11.7179 15.8889 14.8974V22.5897Z" fill="#05668D"/>
</svg>
