<svg width="31" height="31" viewBox="0 0 31 31" fill="none" xmlns="http://www.w3.org/2000/svg">
<path d="M15.5 30.0606C24.335 30.0606 31 27.4382 31 23.9545C31 20.4709 24.335 17.8485 15.5 17.8485C13.1685 17.8485 10.9856 18.0285 9.04167 18.3691V21.1779C10.9727 21.5443 12.2708 22.7398 12.2708 24.2759C12.2708 26.1399 10.3721 27.4896 7.75 27.4896C5.12792 27.4896 3.22917 26.1399 3.22917 24.2759C3.22917 23.1318 3.9525 22.1613 5.16667 21.5892V19.3332C1.96333 20.4259 0 22.0649 0 23.9545C0 27.4382 6.665 30.0606 15.5 30.0606Z" fill="white"/>
<path d="M6.95151 0C6.64151 0 6.38787 0.295909 6.38787 0.657576V22.5088C5.37332 22.8047 4.69696 23.4886 4.69696 24.3303C4.69696 25.4548 5.90878 26.303 7.51514 26.303C9.12151 26.303 10.3333 25.4548 10.3333 24.3303C10.3333 23.2058 9.12151 22.3576 7.51514 22.3576V0.657576C7.51514 0.295909 7.26151 0 6.95151 0ZM9.20605 24.3303C9.20605 24.4947 8.6086 24.9879 7.51514 24.9879C6.42169 24.9879 5.82423 24.4947 5.82423 24.3303C5.82423 24.1659 6.42169 23.6727 7.51514 23.6727C8.6086 23.6727 9.20605 24.1659 9.20605 24.3303Z" fill="white"/>
<path d="M9.39392 1.87879V7.51515L15.562 5.23377C15.8119 5.14625 15.9697 4.93036 15.9697 4.69697C15.9697 4.46358 15.8119 4.24769 15.562 4.16017L9.39392 1.87879Z" fill="white"/>
</svg>
