<svg width="28" height="31" viewBox="0 0 28 31" fill="none" xmlns="http://www.w3.org/2000/svg">
<path d="M27.5712 26.7466L26.303 25.2812C25.9742 24.903 25.4575 24.6666 24.9409 24.6666C24.8939 24.6666 24.8469 24.6666 24.8 24.6666L19.3985 18.3793C18.6 14.2193 18.6469 14.3612 18.6 14.2666C18.6 14.1248 18.3182 12.6593 18.2712 12.6121C18.0833 11.8557 17.9894 8.45207 15.5 4.76479C12.353 0.0375206 6.85755 -1.6643 2.77118 1.92843C1.503 3.0157 1.22119 3.77207 1.12725 3.91388C-0.0469966 6.27752 -0.140936 8.59388 0.845428 10.9102C1.08028 10.6739 1.36209 10.4848 1.64391 10.2957C1.503 9.91752 1.40906 9.58661 1.31512 9.20843L3.75755 9.39752C4.27422 9.2557 4.79088 9.20843 5.30755 9.20843C6.153 9.20843 6.95149 9.35025 7.703 9.68116L8.83027 9.7757L8.78331 10.2484C9.11209 10.4375 9.39391 10.6739 9.67573 10.9102L9.7227 9.82297L13.3394 10.0593L13.1045 13.6993L11.5075 13.6048C11.6485 13.9357 11.6954 14.2666 11.7894 14.5975L13.0575 14.6921L12.7757 17.9539C12.4 17.9539 11.9772 17.9539 11.5075 17.9066C11.4136 18.2375 11.2727 18.5684 11.0848 18.8993L16.6272 20.8375L22.0757 27.1248C22.0757 27.2193 22.0288 27.2666 22.0288 27.3612C21.9818 27.8339 22.1697 28.3066 22.4515 28.6848L23.7197 30.1502C23.8136 30.2448 23.9545 30.2921 24.0954 30.2921C24.1894 30.2921 24.3303 30.2448 24.3772 30.1502L27.5242 27.4084C27.6182 27.3139 27.6651 27.2193 27.6651 27.0775C27.7121 26.9357 27.6651 26.8412 27.5712 26.7466ZM4.32118 8.40479L1.12725 8.16843C0.986337 6.89207 1.22119 5.66297 1.83179 4.5757L4.55603 4.76479L4.32118 8.40479ZM4.603 3.86661L2.39543 3.72479C2.67725 3.29934 3.00603 2.96843 3.38179 2.63752C3.80452 2.25934 4.27422 1.92843 4.74391 1.69207L4.603 3.86661ZM8.83027 8.7357L5.26058 8.49934L5.49543 4.85934L9.11209 5.0957L8.83027 8.7357ZM9.15906 4.15025L5.5424 3.91388L5.73028 1.26661C6.90452 0.88843 8.12573 0.841157 9.34694 1.17207L9.15906 4.15025ZM14.5606 5.47388H14.8424C15.5469 6.56116 16.2045 7.83752 16.6272 9.2557L14.3257 9.11388L14.5606 5.47388ZM14.2318 10.0593L16.9091 10.2484C17.2379 11.5248 17.3318 12.7539 17.1909 13.9357L13.9969 13.6993L14.2318 10.0593ZM13.3863 9.06661L9.76967 8.83025L10.0045 5.19025L13.6212 5.42661L13.3863 9.06661ZM13.6682 4.48116L10.0985 4.24479L10.2863 1.50297C11.5075 1.9757 12.6818 2.82661 13.7151 4.00843L13.6682 4.48116ZM13.95 14.6448L17.003 14.8339C16.5333 16.3939 15.406 17.4812 13.7621 17.8121L13.95 14.6448ZM16.8151 19.7975L13.8091 18.7575C15.7818 18.3793 17.2379 17.0557 17.8485 15.2593L18.4591 18.3793L16.8151 19.7975Z" fill="white"/>
<path d="M2.44242 14.9284C3.14697 16.6775 3.89849 18.5212 2.72424 20.4121C1.12727 19.5139 0 17.7648 0 15.7793C0 14.2666 0.657576 12.8957 1.64394 11.9502C1.64394 12.8957 2.06667 13.9357 2.44242 14.9284Z" fill="white"/>
<path d="M7.13931 14.5502C6.43476 16.3466 5.54234 18.5212 6.85749 20.8375C6.38779 20.9793 5.82415 21.0739 5.30749 21.0739C4.79082 21.0739 4.22718 20.9793 3.75749 20.8375C6.10597 16.6775 1.26809 12.8957 3.28779 10.9102C4.55597 10.3902 6.01203 10.343 7.37415 10.9102C8.17264 11.7612 7.84385 12.8012 7.13931 14.5502Z" fill="white"/>
<path d="M10.5211 15.7793C10.5211 17.7648 9.44083 19.5139 7.7969 20.4121C6.66962 18.5212 7.37417 16.7248 8.07871 14.9757C8.50144 13.983 8.8772 12.943 8.83023 11.9975C9.86356 12.8957 10.5211 14.2666 10.5211 15.7793Z" fill="white"/>
</svg>
